<?xml version="1.0" encoding="UTF-8"?>
<svg version="1.1" xmlns="http://www.w3.org/2000/svg" width="512" height="512">
<path d="M0 0 C3.24820274 0.50917188 6.50135506 0.9772231 9.75537109 1.44775391 C53.22213137 7.96588326 99.33909373 20.67176539 134.93115234 47.45947266 C135.68654297 48.02279297 136.44193359 48.58611328 137.22021484 49.16650391 C139.48955236 50.89385188 141.71572935 52.66360764 143.93115234 54.45947266 C144.64916016 55.02923828 145.36716797 55.59900391 146.10693359 56.18603516 C157.88233649 66.01630045 168.8008844 80.1157416 171.93115234 95.45947266 C172.20733978 99.47657123 172.20856597 103.49639622 172.24365234 107.52197266 C172.27265625 108.60414063 172.30166016 109.68630859 172.33154297 110.80126953 C172.39133795 118.46882616 171.02166863 124.46275104 167.93115234 131.45947266 C167.36388428 132.77540405 167.36388428 132.77540405 166.78515625 134.11791992 C160.53149076 148.17767278 148.22855485 159.50363629 136.05615234 168.52197266 C135.09201416 169.23836914 135.09201416 169.23836914 134.10839844 169.96923828 C131.07776838 172.15275823 128.58679739 173.71410346 124.93115234 174.45947266 C124.93115234 175.11947266 124.93115234 175.77947266 124.93115234 176.45947266 C110.24370842 184.37981279 95.63675842 191.78298924 79.93115234 197.45947266 C79.21540039 197.72276367 78.49964844 197.98605469 77.76220703 198.25732422 C44.86260819 210.24423471 9.74604024 216.59282792 -25.06884766 219.45947266 C-26.10154785 219.55446045 -27.13424805 219.64944824 -28.19824219 219.74731445 C-40.42077895 220.73983314 -52.66993483 220.64554585 -64.92480469 220.64477539 C-68.76850768 220.64694425 -72.6119146 220.66510286 -76.45556641 220.68408203 C-97.571997 220.73278404 -118.74882408 220.01568613 -139.63134766 216.64697266 C-141.28517456 216.38823364 -141.28517456 216.38823364 -142.97241211 216.12426758 C-146.34104677 215.5868291 -149.70514326 215.0268804 -153.06884766 214.45947266 C-154.12362305 214.28577148 -155.17839844 214.11207031 -156.26513672 213.93310547 C-183.97903945 209.29267793 -214.06214328 202.37524263 -239.16552734 189.43969727 C-241.00155659 188.49412808 -242.85317361 187.59425326 -244.71728516 186.70556641 C-259.14536146 179.74473685 -274.64195047 171.91153922 -286.06884766 160.45947266 C-286.06884766 159.79947266 -286.06884766 159.13947266 -286.06884766 158.45947266 C-286.64119141 158.21841797 -287.21353516 157.97736328 -287.80322266 157.72900391 C-299.46841149 151.19247568 -307.50467207 134.93963014 -311.21337891 122.67431641 C-315.13719291 105.64652169 -311.56935751 90.32773214 -302.75634766 75.58447266 C-299.01485742 70.08761366 -294.65669681 65.25659213 -290.06884766 60.45947266 C-289.47845703 59.79431641 -288.88806641 59.12916016 -288.27978516 58.44384766 C-278.41914337 47.75786581 -264.7685495 40.27536768 -252.06884766 33.45947266 C-250.98603516 32.87681641 -249.90322266 32.29416016 -248.78759766 31.69384766 C-227.55813516 20.68230402 -204.56548496 13.01236204 -181.22827148 7.95727539 C-179.65918977 7.5955617 -178.09714866 7.20287357 -176.5402832 6.79174805 C-167.49141459 4.40343118 -158.36364532 2.86850803 -149.13134766 1.39697266 C-148.31248077 1.26529694 -147.49361389 1.13362122 -146.64993286 0.99795532 C-134.15172406 -1.00386286 -121.70595882 -2.7116386 -109.06884766 -3.54052734 C-107.99642822 -3.62294678 -107.99642822 -3.62294678 -106.90234375 -3.70703125 C-71.62544573 -6.40350666 -34.93455589 -5.553379 0 0 Z " fill="#038181" transform="translate(323.06884765625,156.54052734375)"/>
<path d="M0 0 C3.24820274 0.50917188 6.50135506 0.9772231 9.75537109 1.44775391 C53.22213137 7.96588326 99.33909373 20.67176539 134.93115234 47.45947266 C135.68654297 48.02279297 136.44193359 48.58611328 137.22021484 49.16650391 C139.48955236 50.89385188 141.71572935 52.66360764 143.93115234 54.45947266 C144.64916016 55.02923828 145.36716797 55.59900391 146.10693359 56.18603516 C157.88233649 66.01630045 168.8008844 80.1157416 171.93115234 95.45947266 C172.20733978 99.47657123 172.20856597 103.49639622 172.24365234 107.52197266 C172.27265625 108.60414063 172.30166016 109.68630859 172.33154297 110.80126953 C172.39133795 118.46882616 171.02166863 124.46275104 167.93115234 131.45947266 C167.36388428 132.77540405 167.36388428 132.77540405 166.78515625 134.11791992 C160.53149076 148.17767278 148.22855485 159.50363629 136.05615234 168.52197266 C135.09201416 169.23836914 135.09201416 169.23836914 134.10839844 169.96923828 C131.07776838 172.15275823 128.58679739 173.71410346 124.93115234 174.45947266 C124.93115234 175.11947266 124.93115234 175.77947266 124.93115234 176.45947266 C110.24370842 184.37981279 95.63675842 191.78298924 79.93115234 197.45947266 C79.21540039 197.72276367 78.49964844 197.98605469 77.76220703 198.25732422 C44.86260819 210.24423471 9.74604024 216.59282792 -25.06884766 219.45947266 C-26.10154785 219.55446045 -27.13424805 219.64944824 -28.19824219 219.74731445 C-40.42077895 220.73983314 -52.66993483 220.64554585 -64.92480469 220.64477539 C-68.76850768 220.64694425 -72.6119146 220.66510286 -76.45556641 220.68408203 C-97.571997 220.73278404 -118.74882408 220.01568613 -139.63134766 216.64697266 C-141.28517456 216.38823364 -141.28517456 216.38823364 -142.97241211 216.12426758 C-146.34104677 215.5868291 -149.70514326 215.0268804 -153.06884766 214.45947266 C-154.12362305 214.28577148 -155.17839844 214.11207031 -156.26513672 213.93310547 C-183.97903945 209.29267793 -214.06214328 202.37524263 -239.16552734 189.43969727 C-241.00155659 188.49412808 -242.85317361 187.59425326 -244.71728516 186.70556641 C-259.14536146 179.74473685 -274.64195047 171.91153922 -286.06884766 160.45947266 C-286.06884766 159.79947266 -286.06884766 159.13947266 -286.06884766 158.45947266 C-286.64119141 158.21841797 -287.21353516 157.97736328 -287.80322266 157.72900391 C-299.46841149 151.19247568 -307.50467207 134.93963014 -311.21337891 122.67431641 C-315.13719291 105.64652169 -311.56935751 90.32773214 -302.75634766 75.58447266 C-299.01485742 70.08761366 -294.65669681 65.25659213 -290.06884766 60.45947266 C-289.47845703 59.79431641 -288.88806641 59.12916016 -288.27978516 58.44384766 C-278.41914337 47.75786581 -264.7685495 40.27536768 -252.06884766 33.45947266 C-250.98603516 32.87681641 -249.90322266 32.29416016 -248.78759766 31.69384766 C-227.55813516 20.68230402 -204.56548496 13.01236204 -181.22827148 7.95727539 C-179.65918977 7.5955617 -178.09714866 7.20287357 -176.5402832 6.79174805 C-167.49141459 4.40343118 -158.36364532 2.86850803 -149.13134766 1.39697266 C-148.31248077 1.26529694 -147.49361389 1.13362122 -146.64993286 0.99795532 C-134.15172406 -1.00386286 -121.70595882 -2.7116386 -109.06884766 -3.54052734 C-107.99642822 -3.62294678 -107.99642822 -3.62294678 -106.90234375 -3.70703125 C-71.62544573 -6.40350666 -34.93455589 -5.553379 0 0 Z M-190.93505859 21.84375 C-192.47546665 22.28824761 -194.01807891 22.72513099 -195.56201172 23.15722656 C-223.0073176 30.86908971 -249.7255578 41.43537886 -272.06884766 59.45947266 C-272.61412109 59.89485352 -273.15939453 60.33023438 -273.72119141 60.77880859 C-287.11087568 71.65588097 -296.08899234 85.31175981 -299.06884766 102.45947266 C-300.49160051 116.80362033 -295.2722276 131.12777544 -286.40185547 142.2746582 C-277.0568128 153.55704789 -265.64106028 162.07822587 -253.06884766 169.45947266 C-252.39563477 169.85634277 -251.72242188 170.25321289 -251.02880859 170.66210938 C-212.56056559 192.95600377 -165.93452956 202.14351611 -122.06884766 206.45947266 C-121.06724609 206.56243652 -120.06564453 206.66540039 -119.03369141 206.77148438 C-96.84860064 208.96847475 -74.617609 208.76050215 -52.35137939 208.48620605 C-50.38860462 208.4632177 -48.42574755 208.44745811 -46.46289062 208.43310547 C-1.11505341 208.00382939 46.94014887 198.60092266 88.93115234 181.45947266 C89.60952148 181.1895752 90.28789062 180.91967773 90.98681641 180.64160156 C115.28771617 170.91544192 143.62873379 154.44697375 154.75244141 129.62695312 C159.62633945 117.62520793 161.38922488 104.17730772 156.89990234 91.74853516 C156.58021484 90.99314453 156.26052734 90.23775391 155.93115234 89.45947266 C155.59083984 88.64220703 155.25052734 87.82494141 154.89990234 86.98291016 C151.8590674 80.34649335 147.73946301 74.91826777 142.93115234 69.45947266 C142.29822266 68.73115234 141.66529297 68.00283203 141.01318359 67.25244141 C116.22468367 40.64196277 77.32499881 28.07028349 42.99243164 20.19238281 C40.12197286 19.50515757 37.29270111 18.7334395 34.45458984 17.92431641 C28.2038682 16.19318224 21.88363928 15.04835326 15.49365234 13.95947266 C14.23883057 13.74516602 12.98400879 13.53085938 11.69116211 13.31005859 C2.94161759 11.86063689 -5.81463071 10.66627811 -14.63134766 9.70947266 C-16.21290649 9.53641602 -16.21290649 9.53641602 -17.82641602 9.35986328 C-35.53242634 7.56767452 -53.2856892 7.25085637 -71.06884766 7.27197266 C-72.09820435 7.27290924 -73.12756104 7.27384583 -74.18811035 7.27481079 C-113.2744755 7.35155599 -153.23017994 10.93918726 -190.93505859 21.84375 Z " fill="#028080" transform="translate(323.06884765625,156.54052734375)"/>
<path d="M0 0 C6.34965542 -0.0510999 12.69925696 -0.08589991 19.04907227 -0.10986328 C21.2050169 -0.11986317 23.36094818 -0.13346747 25.5168457 -0.15087891 C28.63235796 -0.17539347 31.74768946 -0.18654353 34.86328125 -0.1953125 C35.81270096 -0.20563507 36.76212067 -0.21595764 37.74031067 -0.22659302 C48.52828535 -0.22836414 57.13712 0.75426527 65.375 8.125 C67.83599799 12.47907336 67.41329169 16.10218502 67 21 C66.94537598 21.65129883 66.89075195 22.30259766 66.83447266 22.97363281 C66.64187982 25.13126669 66.42067634 27.28389106 66.1875 29.4375 C66.11772949 30.13593018 66.04795898 30.83436035 65.97607422 31.55395508 C65.64638932 34.2448524 65.28420676 36.5223332 63.88671875 38.87109375 C60.994816 40.6014455 57.90018916 41.06859721 54.625 41.625 C53.965 41.74617188 53.305 41.86734375 52.625 41.9921875 C50.75134841 42.33556588 48.87571028 42.66805127 47 43 C45.33233089 43.32828132 43.66516649 43.65925164 42 44 C42 44.66 42 45.32 42 46 C47.70084343 47.37923631 53.18165085 48.31157545 59.03125 48.75390625 C61 49 61 49 62 50 C61.96043135 52.39238157 61.85297881 54.74033706 61.6875 57.125 C61.64117432 57.83333984 61.59484863 58.54167969 61.54711914 59.27148438 C61.02971925 66.56189909 60.06970347 73.77171249 59 81 C62.63 80.67 66.26 80.34 70 80 C72.75042493 65.60252425 74.86691083 51.15723031 76.75 36.625 C76.86250092 35.77138885 76.97500183 34.91777771 77.09091187 34.03829956 C77.41611856 31.56017876 77.73287118 29.08112517 78.046875 26.6015625 C78.19190208 25.50094734 78.19190208 25.50094734 78.33985901 24.37809753 C78.97728294 19.22037754 79.07813383 14.19718084 79 9 C77.68 8.67 76.36 8.34 75 8 C75 5.36 75 2.72 75 0 C80.7617063 -0.04989487 86.52328342 -0.08595113 92.28515625 -0.10986328 C94.2402567 -0.11984485 96.19534252 -0.13343487 98.15039062 -0.15087891 C130.48737066 -0.43192628 130.48737066 -0.43192628 139.68359375 7.44140625 C143.12765661 11.51909492 142.21975588 17.18423036 141.82946777 22.18505859 C141.59392809 24.52281873 141.32733086 26.8547047 141.046875 29.1875 C140.8946347 30.47865723 140.8946347 30.47865723 140.73931885 31.79589844 C140.52324789 33.61146905 140.3045971 35.42673431 140.08349609 37.24169922 C139.75443017 39.96335865 139.44129071 42.68653879 139.12890625 45.41015625 C135.4473752 76.51973108 135.4473752 76.51973108 126.5 84.125 C115.88608632 89.81102519 104.45175215 89.40527719 92.765625 89.29296875 C91.03400035 89.28736089 89.30237089 89.28309643 87.57073975 89.28010559 C83.05308469 89.26875038 78.53572736 89.2393656 74.01818848 89.20599365 C69.39237493 89.17508962 64.76651243 89.16155717 60.140625 89.14648438 C51.09362049 89.11448522 42.04683518 89.06340433 33 89 C32.96295411 80.22242398 32.96295411 80.22242398 33.62109375 76.37890625 C33.75193359 75.58806641 33.88277344 74.79722656 34.01757812 73.98242188 C34.22543945 72.78456055 34.22543945 72.78456055 34.4375 71.5625 C35.48487629 65.38348105 36.35709719 59.23553307 37 53 C35.783125 52.79375 34.56625 52.5875 33.3125 52.375 C32.62800781 52.25898438 31.94351563 52.14296875 31.23828125 52.0234375 C28.45176727 51.99425934 26.54427147 52.92038879 24 54 C23.94448975 54.65991943 23.88897949 55.31983887 23.83178711 55.99975586 C23.23267751 62.87772748 22.46974272 69.71863314 21.5625 76.5625 C21.44068359 77.54541016 21.31886719 78.52832031 21.19335938 79.54101562 C21.06896484 80.47751953 20.94457031 81.41402344 20.81640625 82.37890625 C20.70756104 83.2201001 20.59871582 84.06129395 20.48657227 84.92797852 C20 87 20 87 18 89 C15.01904297 89.22705078 15.01904297 89.22705078 11.2421875 89.1953125 C10.57913605 89.1924826 9.91608459 89.18965271 9.23294067 89.18673706 C7.11344417 89.17553435 4.99436896 89.15043051 2.875 89.125 C1.43880818 89.11497028 0.00260975 89.10584441 -1.43359375 89.09765625 C-4.95586628 89.075595 -8.47789203 89.04106494 -12 89 C-11.67 86.36 -11.34 83.72 -11 81 C-9.576875 80.7834375 -9.576875 80.7834375 -8.125 80.5625 C-7.09375 80.046875 -6.0625 79.53125 -5 79 C-2.87417363 71.7876509 -2.19376185 64.2924778 -1.31069946 56.84255981 C-0.88852252 53.28320275 -0.4520177 49.72560658 -0.015625 46.16796875 C0.07035446 45.46502182 0.15633392 44.76207489 0.24491882 44.03782654 C1.08426797 37.22223174 2.03877004 30.42596559 3.04858398 23.63378906 C3.81799285 18.43180741 4.44434034 13.22943246 5 8 C3.35 8 1.7 8 0 8 C0 5.36 0 2.72 0 0 Z " fill="#F6FBF4" transform="translate(287,210)"/>
<path d="M0 0 C3.03366127 0.00534566 6.06717334 0.00002712 9.10083008 -0.00634766 C51.87453688 -0.02348777 93.5810759 5.43989279 134.7355957 17.13037109 C135.91460449 17.46053223 135.91460449 17.46053223 137.11743164 17.79736328 C161.1348706 24.59847117 186.6534688 34.7358677 205.7355957 51.13037109 C206.61086914 51.86900391 207.48614258 52.60763672 208.38793945 53.36865234 C221.32868752 64.63586006 232.59067316 77.78612726 234.0090332 95.55615234 C234.49597731 114.19112883 228.31997492 128.03512422 215.63476562 141.74365234 C208.53610843 149.08537363 200.33880174 154.69962443 191.7355957 160.13037109 C190.10750977 161.17644531 190.10750977 161.17644531 188.4465332 162.24365234 C170.64211011 173.05193351 150.55675501 179.59946924 130.64233398 185.29589844 C128.13316185 186.01623695 125.63528412 186.76493789 123.13793945 187.52490234 C31.84128009 214.3597364 -90.84044922 209.24561823 -175.04492188 164.30908203 C-195.04495641 153.21246476 -214.76892272 137.61681583 -222.2331543 115.22412109 C-226.06049788 101.47403487 -224.62821774 88.30992125 -217.82299805 75.68896484 C-196.10953174 40.04405148 -152.76609408 24.04402526 -114.2644043 14.13037109 C-113.48516602 13.92105957 -112.70592773 13.71174805 -111.90307617 13.49609375 C-87.75448271 7.02592223 -62.21234603 2.78468811 -37.2644043 1.13037109 C-36.10706787 1.0449707 -34.94973145 0.95957031 -33.75732422 0.87158203 C-22.50414152 0.08690926 -11.27752043 -0.02354956 0 0 Z M-202.9362793 68.48583984 C-211.43861881 78.14369866 -215.84954793 87.69036554 -215.7019043 100.50537109 C-215.69288086 101.43784668 -215.68385742 102.37032227 -215.67456055 103.33105469 C-215.50658578 109.98122231 -214.88782534 115.41296168 -211.2644043 121.13037109 C-210.71655273 122.00306641 -210.16870117 122.87576172 -209.60424805 123.77490234 C-194.75125023 145.58166505 -171.21568523 158.50972625 -147.2644043 168.13037109 C-146.56041504 168.4162207 -145.85642578 168.70207031 -145.13110352 168.99658203 C-84.32516035 193.39511973 -12.72897077 198.03797985 51.99829102 191.40820312 C54.73964231 191.12996037 57.48215151 190.88955287 60.2277832 190.65771484 C69.73240537 189.82820455 79.0064864 188.51580002 88.36157227 186.59863281 C91.12363 186.05383368 93.89304155 185.56210282 96.6652832 185.07177734 C138.62348656 177.54179249 189.36908478 163.17334184 216.79418945 127.97021484 C224.53050663 116.65371064 227.26519411 105.75830173 225.7355957 92.13037109 C220.41015144 72.1599551 203.68040686 57.34479276 186.42138672 47.3293457 C167.36844954 36.63909416 147.63962964 29.37426624 126.7355957 23.13037109 C125.8923877 22.87271973 125.04917969 22.61506836 124.18041992 22.34960938 C46.93197901 -1.02008739 -48.93939418 1.43337945 -202.9362793 68.48583984 Z " fill="#F7FBFB" transform="translate(248.264404296875,163.86962890625)"/>
<path d="M0 0 C4.31796769 3.47281387 6.16264302 6.04028338 7.6328125 11.453125 C7.81744631 20.89271629 6.03956496 30.46887819 4.5859375 39.78442383 C4.25875268 41.88459006 3.94124265 43.98605188 3.625 46.08789062 C2.99736182 50.21593906 2.32384433 54.33526704 1.6328125 58.453125 C1.51933472 59.14738586 1.40585693 59.84164673 1.28894043 60.5569458 C0.94922231 62.59995467 0.58745919 64.637827 0.21875 66.67578125 C0.01040527 67.86051025 -0.19793945 69.04523926 -0.41259766 70.26586914 C-1.72211051 74.63816845 -3.81369938 77.38146742 -7.55859375 79.96484375 C-21.06973055 86.66476496 -36.04489087 87.20307833 -50.57421875 83.43359375 C-55.33492625 81.76235238 -58.0237053 79.59048304 -60.7421875 75.265625 C-62.56272819 67.07319188 -61.0062816 58.52412266 -59.7578125 50.34765625 C-59.58973083 49.2242131 -59.42164917 48.10076996 -59.24847412 46.94328308 C-58.89254291 44.58374702 -58.53263832 42.22480722 -58.16894531 39.86645508 C-57.61754882 36.267983 -57.08953048 32.66656416 -56.5625 29.06445312 C-56.21235938 26.76280408 -55.86084375 24.4613637 -55.5078125 22.16015625 C-55.35346741 21.09021927 -55.19912231 20.02028229 -55.0401001 18.91792297 C-53.9746437 12.19801016 -52.57581291 6.86927345 -47.796875 1.78125 C-35.35781039 -6.84483501 -12.96728016 -8.47366822 0 0 Z " fill="#F2FF5B" transform="translate(276.3671875,214.546875)"/>
<path d="M0 0 C3.61677853 2.63723434 5.21156871 4.0383394 7 8.1875 C8.68306727 19.51783945 5.77669366 31.47696892 4.01171875 42.64453125 C3.19179896 47.83735661 2.51729386 53.02605092 1.9375 58.25 C0.00181241 73.71909657 0.00181241 73.71909657 -4.9375 78.5625 C-13.27153508 84.59867355 -22.1110868 85.5461965 -32.125 85.625 C-33.04289307 85.63515137 -33.96078613 85.64530273 -34.90649414 85.65576172 C-43.68266972 85.54416353 -52.10868506 83.87283482 -59 78.1875 C-64.07890821 70.3829615 -60.74239771 57.58831278 -59.35546875 48.9375 C-59.18501541 47.83575439 -59.01456207 46.73400879 -58.83894348 45.59887695 C-58.47981503 43.29577838 -58.1157292 40.99344766 -57.74682617 38.69189453 C-57.18479311 35.17054029 -56.6452155 31.64622211 -56.10742188 28.12109375 C-55.75393942 25.87218555 -55.39916773 23.62347953 -55.04296875 21.375 C-54.88346237 20.32602539 -54.72395599 19.27705078 -54.55961609 18.19628906 C-53.31379774 10.57272642 -51.28662587 5.53781151 -45.19140625 0.61328125 C-32.14769767 -7.87326711 -13.57311812 -6.87282888 0 0 Z " fill="#F2FF5B" transform="translate(138,212.8125)"/>
<path d="M0 0 C10.23 0 20.46 0 31 0 C31 8.98653846 31 8.98653846 30.34375 13.12890625 C30.20839844 14.01900391 30.07304687 14.90910156 29.93359375 15.82617188 C29.79050781 16.72916016 29.64742187 17.63214844 29.5 18.5625 C28.04293295 27.24135841 28.04293295 27.24135841 28 36 C30.3726974 38.00864359 30.3726974 38.00864359 33 39 C33.78375 38.505 34.5675 38.01 35.375 37.5 C38 36 38 36 40 36 C40.03738281 35.31679687 40.07476562 34.63359375 40.11328125 33.9296875 C40.60935234 26.32326411 41.4844756 18.80315381 42.5 11.25 C42.63059814 10.26112793 42.76119629 9.27225586 42.89575195 8.25341797 C43.08657349 6.86727295 43.08657349 6.86727295 43.28125 5.453125 C43.39533203 4.61942383 43.50941406 3.78572266 43.62695312 2.92675781 C44 1 44 1 45 0 C47.29151417 -0.08790975 49.58572524 -0.10694038 51.87890625 -0.09765625 C52.90889992 -0.09553383 52.90889992 -0.09553383 53.95970154 -0.09336853 C56.16067801 -0.08775479 58.36155409 -0.07520007 60.5625 -0.0625 C62.05143083 -0.05748676 63.54036324 -0.05292355 65.02929688 -0.04882812 C68.68623075 -0.03778093 72.34310558 -0.02050713 76 0 C75.67 2.64 75.34 5.28 75 8 C73.02 8.66 71.04 9.32 69 10 C68.5176843 12.81199154 68.03908565 15.62453634 67.5625 18.4375 C67.36043945 19.6121582 67.36043945 19.6121582 67.15429688 20.81054688 C66.35278124 25.56099318 65.73253974 30.27000762 65.35913086 35.07446289 C65 37 65 37 63 40 C60.36104473 40.68536685 57.86829498 41.2048576 55.1875 41.625 C53.76431395 41.86713482 52.34113667 42.10932115 50.91796875 42.3515625 C49.62503906 42.56554687 48.33210938 42.77953125 47 43 C45.33160845 43.3245898 43.66397395 43.65347497 42 44 C42 44.66 42 45.32 42 46 C47.70084343 47.37923631 53.18165085 48.31157545 59.03125 48.75390625 C61 49 61 49 62 50 C62.56537961 57.12047894 61.59439671 64.10508597 60.5 71.125 C60.35691406 72.08148438 60.21382813 73.03796875 60.06640625 74.0234375 C59.71741855 76.35002216 59.36187667 78.67539156 59 81 C60.98 81 62.96 81 65 81 C64.67 83.64 64.34 86.28 64 89 C53.77 89 43.54 89 33 89 C33.59807905 80.02881418 34.20434122 71.39378129 35.5625 62.5625 C35.70107422 61.62857422 35.83964844 60.69464844 35.98242188 59.73242188 C36.31629338 57.48742382 36.65543849 55.24337746 37 53 C32.49126383 51.28469275 32.49126383 51.28469275 27.75 51.625 C23.24168081 55.51854839 23.61597247 60.28106294 23 66 C22.64787843 68.75247764 22.27758812 71.50177163 21.8972168 74.25048828 C21.63422236 76.15368219 21.38162656 78.0583445 21.13989258 79.96435547 C21.02154053 80.84494629 20.90318848 81.72553711 20.78125 82.6328125 C20.67876953 83.42574707 20.57628906 84.21868164 20.47070312 85.03564453 C20 87 20 87 18 89 C15.11083984 89.22705078 15.11083984 89.22705078 11.4609375 89.1953125 C9.50800781 89.18564453 9.50800781 89.18564453 7.515625 89.17578125 C6.13541405 89.15906929 4.75520571 89.14213939 3.375 89.125 C1.98698548 89.11497006 0.59896411 89.10584423 -0.7890625 89.09765625 C-4.19288026 89.07401863 -7.59635506 89.04106867 -11 89 C-11 86.69 -11 84.38 -11 82 C-8.03 81.01 -8.03 81.01 -5 80 C-4.85377197 79.09644775 -4.70754395 78.19289551 -4.55688477 77.26196289 C-4.01405768 73.91994817 -3.46762321 70.57856563 -2.91870117 67.23754883 C-2.68156591 65.78954469 -2.4458845 64.34130169 -2.21166992 62.89282227 C-1.87537609 60.81462593 -1.53391681 58.73733584 -1.19140625 56.66015625 C-0.98717041 55.40855713 -0.78293457 54.15695801 -0.57250977 52.86743164 C0 50 0 50 1 49 C4.08848623 48.55179285 7.17593411 48.18149574 10.27734375 47.83789062 C14.14641141 47.37040996 17.45917833 46.64003174 21 45 C18.23717665 42.23717665 15.21185213 42.13136176 11.5 41.5 C4.27027027 40.27027027 4.27027027 40.27027027 2 38 C1.953125 36.03125 1.953125 36.03125 2.25 33.5 C2.35699219 32.53449219 2.46398437 31.56898438 2.57421875 30.57421875 C2.71472656 29.39472656 2.85523438 28.21523437 3 27 C3.17465887 25.42334053 3.34773189 23.84650487 3.51953125 22.26953125 C4.00279217 17.84516409 4.49889421 13.42238023 5 9 C3.35 8.67 1.7 8.34 0 8 C0 5.36 0 2.72 0 0 Z " fill="#F2FF5B" transform="translate(148,210)"/>
<path d="M0 0 C6.10145441 -0.07455252 12.20263946 -0.12879183 18.30444336 -0.16479492 C20.37708154 -0.17981521 22.44968829 -0.20023747 24.5222168 -0.22631836 C27.51358836 -0.26300024 30.5045371 -0.27979435 33.49609375 -0.29296875 C34.87008583 -0.31619453 34.87008583 -0.31619453 36.27183533 -0.33988953 C43.33229134 -0.34170706 49.42567185 0.90771035 55.5625 4.5 C59.93711316 12.10802289 56.33319802 23.84606567 55 32 C54.11699219 32.15855469 53.23398437 32.31710938 52.32421875 32.48046875 C44.28022273 34.04433908 37.282872 36.23965997 30 40 C30 40.66 30 41.32 30 42 C37.2497867 45.67397314 43.93079814 47.95428138 52 49 C51.1535545 60.97630332 51.1535545 60.97630332 50.4375 65.75 C50.07433311 68.44781121 49.84140765 71.03388708 49.75 73.75 C49.72421875 74.48734375 49.6984375 75.2246875 49.671875 75.984375 C49.87294415 78.45724888 49.87294415 78.45724888 53 81 C45.74 81 38.48 81 31 81 C31.47456546 75.06793175 32.0874019 69.24633539 33.0625 63.375 C33.9040594 58.1573317 34.178888 53.27719589 34 48 C31.14187234 45.80403903 28.46844209 44.04471147 25 43 C22.21211682 43.86045777 20.23507828 45.06727351 17.84765625 46.73046875 C16 48 16 48 14 48 C14.04447266 49.63001953 14.04447266 49.63001953 14.08984375 51.29296875 C14.0886524 56.70051747 13.32698743 61.9681995 12.5625 67.3125 C12.42779297 68.30056641 12.29308594 69.28863281 12.15429688 70.30664062 C11.13878623 77.58364132 11.13878623 77.58364132 10 81 C3.07 81 -3.86 81 -11 81 C-9.68 79.35 -8.36 77.7 -7 76 C-5.67746081 73.35492162 -5.5311616 70.96579714 -5.16796875 68.02490234 C-5.01110596 66.76954681 -4.85424316 65.51419128 -4.69262695 64.22079468 C-4.52417595 62.84251816 -4.35580225 61.46423219 -4.1875 60.0859375 C-4.01228572 58.67302511 -3.8367439 57.26015331 -3.66088867 55.84732056 C-3.19770925 52.11894801 -2.73896039 48.39004314 -2.28112793 44.66101074 C-1.81764547 40.89217182 -1.35007975 37.12383997 -0.8828125 33.35546875 C-0.19698045 27.82107467 0.48661525 22.28641214 1.16796875 16.75146484 C1.77338486 11.83363745 2.38282438 6.91636485 3 2 C2.01 1.67 1.02 1.34 0 1 C0 0.67 0 0.34 0 0 Z " fill="#F2FF5A" transform="translate(293,214)"/>
<path d="M0 0 C9.24 0 18.48 0 28 0 C26.02 2.31 24.04 4.62 22 7 C18.81084165 14.47326108 18.38016116 23.09475597 17.46484375 31.1171875 C17.0626427 34.47674923 16.57339059 37.79133379 16 41.125 C11.89513706 59.1691107 11.89513706 59.1691107 14.27734375 76.828125 C15.95269055 79.43318517 15.95269055 79.43318517 19.875 79.6875 C23.45409782 79.45064794 24.01149712 78.98975257 26.875 76.4375 C31.56903046 70.38121594 31.85769896 61.23259721 32.9375 53.9375 C33.10862305 52.79659912 33.27974609 51.65569824 33.45605469 50.48022461 C33.97648907 46.98764474 34.48858689 43.49391072 35 40 C35.15678223 38.94973633 35.31356445 37.89947266 35.47509766 36.81738281 C35.90922159 33.90033334 36.33178101 30.98186756 36.75 28.0625 C36.87753662 27.20712646 37.00507324 26.35175293 37.13647461 25.47045898 C39.04740928 13.8776577 39.04740928 13.8776577 36 3 C34.4587688 1.29078411 34.4587688 1.29078411 33 0 C41.44703988 -0.65963869 48.85036313 0.82463652 56.13012695 5.31347656 C58 7 58 7 58.4543457 8.89819336 C58.12035286 17.16563552 57.19159799 25.35442572 56.1875 33.5625 C56.09663116 34.31679291 56.00576233 35.07108582 55.91213989 35.84823608 C51.79389342 69.953811 51.79389342 69.953811 44.875 76.1875 C44.09769531 76.92033203 44.09769531 76.92033203 43.3046875 77.66796875 C36.87548081 81.38383228 29.15823215 81.28081217 21.93359375 81.1953125 C21.01409439 81.1924826 20.09459503 81.18965271 19.14723206 81.18673706 C16.24384907 81.17564584 13.34078791 81.15056263 10.4375 81.125 C8.45508262 81.11495588 6.47266034 81.10583255 4.49023438 81.09765625 C-0.33996555 81.07574286 -5.16992843 81.04129081 -10 81 C-9.05942749 80.02329346 -9.05942749 80.02329346 -8.09985352 79.02685547 C-5.52600412 75.31675375 -4.97175392 71.9422663 -4.40234375 67.5703125 C-4.28275803 66.751073 -4.1631723 65.9318335 -4.03996277 65.08776855 C-3.65682959 62.43546942 -3.29665478 59.78064289 -2.9375 57.125 C-2.68007453 55.3024016 -2.42144452 53.47997294 -2.16162109 51.65771484 C-1.53389639 47.22721548 -0.92509144 42.79437295 -0.32281494 38.36035156 C0.12267709 35.10301221 0.58706563 31.84854361 1.05078125 28.59375 C1.32715827 26.60439347 1.60207051 24.61483245 1.875 22.625 C1.99496338 21.76793457 2.11492676 20.91086914 2.23852539 20.02783203 C3.41061461 11.51779353 3.41061461 11.51779353 3 3 C2.01 2.01 1.02 1.02 0 0 Z " fill="#F2FF5B" transform="translate(367,214)"/>
<path d="M0 0 C10.23 0 20.46 0 31 0 C31 8.98653846 31 8.98653846 30.34375 13.12890625 C30.20839844 14.01900391 30.07304687 14.90910156 29.93359375 15.82617188 C29.79050781 16.72916016 29.64742187 17.63214844 29.5 18.5625 C28.04293295 27.24135841 28.04293295 27.24135841 28 36 C30.3726974 38.00864359 30.3726974 38.00864359 33 39 C33.78375 38.505 34.5675 38.01 35.375 37.5 C38 36 38 36 40 36 C40.03738281 35.31679687 40.07476562 34.63359375 40.11328125 33.9296875 C40.60935234 26.32326411 41.4844756 18.80315381 42.5 11.25 C42.63059814 10.26112793 42.76119629 9.27225586 42.89575195 8.25341797 C43.08657349 6.86727295 43.08657349 6.86727295 43.28125 5.453125 C43.39533203 4.61942383 43.50941406 3.78572266 43.62695312 2.92675781 C44 1 44 1 45 0 C47.29151417 -0.08790975 49.58572524 -0.10694038 51.87890625 -0.09765625 C52.90889992 -0.09553383 52.90889992 -0.09553383 53.95970154 -0.09336853 C56.16067801 -0.08775479 58.36155409 -0.07520007 60.5625 -0.0625 C62.05143083 -0.05748676 63.54036324 -0.05292355 65.02929688 -0.04882812 C68.68623075 -0.03778093 72.34310558 -0.02050713 76 0 C75.67 2.64 75.34 5.28 75 8 C73.02 8.66 71.04 9.32 69 10 C68.5176843 12.81199154 68.03908565 15.62453634 67.5625 18.4375 C67.36043945 19.6121582 67.36043945 19.6121582 67.15429688 20.81054688 C66.35278124 25.56099318 65.73253974 30.27000762 65.35913086 35.07446289 C65 37 65 37 63 40 C60.36104473 40.68536685 57.86829498 41.2048576 55.1875 41.625 C53.76431395 41.86713482 52.34113667 42.10932115 50.91796875 42.3515625 C49.62503906 42.56554687 48.33210938 42.77953125 47 43 C45.33160845 43.3245898 43.66397395 43.65347497 42 44 C42 44.66 42 45.32 42 46 C47.70084343 47.37923631 53.18165085 48.31157545 59.03125 48.75390625 C61 49 61 49 62 50 C62.56537961 57.12047894 61.59439671 64.10508597 60.5 71.125 C60.35691406 72.08148438 60.21382813 73.03796875 60.06640625 74.0234375 C59.71741855 76.35002216 59.36187667 78.67539156 59 81 C60.98 81 62.96 81 65 81 C64.67 83.64 64.34 86.28 64 89 C53.77 89 43.54 89 33 89 C33.59807905 80.02881418 34.20434122 71.39378129 35.5625 62.5625 C35.70107422 61.62857422 35.83964844 60.69464844 35.98242188 59.73242188 C36.31629338 57.48742382 36.65543849 55.24337746 37 53 C32.49126383 51.28469275 32.49126383 51.28469275 27.75 51.625 C23.24168081 55.51854839 23.61597247 60.28106294 23 66 C22.64787843 68.75247764 22.27758812 71.50177163 21.8972168 74.25048828 C21.63422236 76.15368219 21.38162656 78.0583445 21.13989258 79.96435547 C21.02154053 80.84494629 20.90318848 81.72553711 20.78125 82.6328125 C20.67876953 83.42574707 20.57628906 84.21868164 20.47070312 85.03564453 C20 87 20 87 18 89 C15.11083984 89.22705078 15.11083984 89.22705078 11.4609375 89.1953125 C9.50800781 89.18564453 9.50800781 89.18564453 7.515625 89.17578125 C6.13541405 89.15906929 4.75520571 89.14213939 3.375 89.125 C1.98698548 89.11497006 0.59896411 89.10584423 -0.7890625 89.09765625 C-4.19288026 89.07401863 -7.59635506 89.04106867 -11 89 C-11 86.69 -11 84.38 -11 82 C-8.03 81.01 -8.03 81.01 -5 80 C-4.85377197 79.09644775 -4.70754395 78.19289551 -4.55688477 77.26196289 C-4.01405768 73.91994817 -3.46762321 70.57856563 -2.91870117 67.23754883 C-2.68156591 65.78954469 -2.4458845 64.34130169 -2.21166992 62.89282227 C-1.87537609 60.81462593 -1.53391681 58.73733584 -1.19140625 56.66015625 C-0.98717041 55.40855713 -0.78293457 54.15695801 -0.57250977 52.86743164 C0 50 0 50 1 49 C4.08848623 48.55179285 7.17593411 48.18149574 10.27734375 47.83789062 C14.14641141 47.37040996 17.45917833 46.64003174 21 45 C18.23717665 42.23717665 15.21185213 42.13136176 11.5 41.5 C4.27027027 40.27027027 4.27027027 40.27027027 2 38 C1.953125 36.03125 1.953125 36.03125 2.25 33.5 C2.35699219 32.53449219 2.46398437 31.56898438 2.57421875 30.57421875 C2.71472656 29.39472656 2.85523438 28.21523437 3 27 C3.17465887 25.42334053 3.34773189 23.84650487 3.51953125 22.26953125 C4.00279217 17.84516409 4.49889421 13.42238023 5 9 C3.35 8.67 1.7 8.34 0 8 C0 5.36 0 2.72 0 0 Z M4 3 C5.32 4.32 6.64 5.64 8 7 C9.34367762 13.82087197 7.63133386 21.30620999 6.4375 28.0546875 C6.03574263 30.75937553 5.91946548 33.27189321 6 36 C7.00160156 36.24234375 8.00320312 36.4846875 9.03515625 36.734375 C15.872119 38.44082597 22.03577424 40.11631811 28 44 C28.66 44 29.32 44 30 44 C30 44.66 30 45.32 30 46 C27.78591377 46.73802874 25.57161088 47.47518897 23.35546875 48.20703125 C21.62080781 48.791005 19.89971395 49.41566362 18.1875 50.0625 C15.05255759 50.98454189 12.02410494 51.53548196 8.80078125 52.05859375 C7.71579346 52.23575928 6.63080566 52.4129248 5.51293945 52.59545898 C4.26903442 52.79570679 4.26903442 52.79570679 3 53 C2.89977539 53.82725586 2.79955078 54.65451172 2.69628906 55.50683594 C2.31477049 58.58753352 1.91793396 61.66576301 1.51074219 64.74316406 C1.25315543 66.72571379 1.01318394 68.71052637 0.7734375 70.6953125 C0.60585937 71.94570313 0.43828125 73.19609375 0.265625 74.484375 C0.11899414 75.63647461 -0.02763672 76.78857422 -0.17871094 77.97558594 C-1 81 -1 81 -5 85 C1.93 85 8.86 85 16 85 C16.268125 83.453125 16.53625 81.90625 16.8125 80.3125 C17.00457031 79.23484375 17.19664062 78.1571875 17.39453125 77.046875 C17.90440555 73.9380025 18.19649279 70.84295215 18.44921875 67.703125 C19.75221734 53.40864662 19.75221734 53.40864662 23.2421875 49.46875 C26.99217615 47.4657887 29.40615321 46.53734842 33.5703125 47.74609375 C38.22038599 50.14589052 38.22038599 50.14589052 40 52 C40.2421875 54.6875 40.2421875 54.6875 39.875 58 C39.68744141 59.84464844 39.68744141 59.84464844 39.49609375 61.7265625 C39.4172998 62.40235352 39.33850586 63.07814453 39.25732422 63.77441406 C38.88118135 67.02765729 38.55972926 70.28614235 38.23071289 73.54443359 C37.83500082 77.36448833 37.4150008 81.1819926 37 85 C43.93 85 50.86 85 58 85 C57.34 84.01 56.68 83.02 56 82 C55.98828125 79.42578125 55.98828125 79.42578125 56.3125 76.3125 C56.82200718 70.9384124 57.24124375 65.57532289 57.5625 60.1875 C57.64709519 58.80598712 57.73172717 57.42447649 57.81640625 56.04296875 C57.90728516 54.53669922 57.90728516 54.53669922 58 53 C56.91460937 52.74605469 55.82921875 52.49210937 54.7109375 52.23046875 C53.26553276 51.88319618 51.82022535 51.53551836 50.375 51.1875 C49.66214844 51.02185547 48.94929688 50.85621094 48.21484375 50.68554688 C43.80283625 49.61290285 40.00941682 48.20707645 36 46 C36 45.34 36 44.68 36 44 C44.11523674 39.80988797 52.02795685 37.61103841 61 36 C61.10546143 35.26885986 61.21092285 34.53771973 61.31958008 33.78442383 C61.80584448 30.45867082 62.30898735 27.13568351 62.8125 23.8125 C62.97814453 22.66201172 63.14378906 21.51152344 63.31445312 20.32617188 C63.48525391 19.21435547 63.65605469 18.10253906 63.83203125 16.95703125 C63.98389893 15.93585205 64.1357666 14.91467285 64.29223633 13.86254883 C65.05605835 10.77327211 66.25328849 8.64168286 68 6 C68.33 5.34 68.66 4.68 69 4 C62.07 4 55.14 4 48 4 C47.32446067 7.97784099 46.65933807 11.95696913 46 15.9375 C45.71382812 17.61295898 45.71382812 17.61295898 45.421875 19.32226562 C44.3837567 25.64366457 43.78264343 31.59477372 44 38 C43.278125 38.268125 42.55625 38.53625 41.8125 38.8125 C38.94828791 39.90604472 38.94828791 39.90604472 36.5 41.75 C34 43 34 43 31.5 42.375 C28.95980381 40.9778921 26.48201575 39.49748284 24 38 C24.48192671 29.65505859 25.26246561 21.50869802 26.59765625 13.25390625 C27.1431674 9.38859882 27.1431674 9.38859882 27 3 C19.41 3 11.82 3 4 3 Z " fill="#F7FBF4" transform="translate(148,210)"/>
<path d="M0 0 C3.61677853 2.63723434 5.21156871 4.0383394 7 8.1875 C8.68306727 19.51783945 5.77669366 31.47696892 4.01171875 42.64453125 C3.19179896 47.83735661 2.51729386 53.02605092 1.9375 58.25 C0.00181241 73.71909657 0.00181241 73.71909657 -4.9375 78.5625 C-13.27153508 84.59867355 -22.1110868 85.5461965 -32.125 85.625 C-33.04289307 85.63515137 -33.96078613 85.64530273 -34.90649414 85.65576172 C-43.68266972 85.54416353 -52.10868506 83.87283482 -59 78.1875 C-64.07890821 70.3829615 -60.74239771 57.58831278 -59.35546875 48.9375 C-59.18501541 47.83575439 -59.01456207 46.73400879 -58.83894348 45.59887695 C-58.47981503 43.29577838 -58.1157292 40.99344766 -57.74682617 38.69189453 C-57.18479311 35.17054029 -56.6452155 31.64622211 -56.10742188 28.12109375 C-55.75393942 25.87218555 -55.39916773 23.62347953 -55.04296875 21.375 C-54.88346237 20.32602539 -54.72395599 19.27705078 -54.55961609 18.19628906 C-53.31379774 10.57272642 -51.28662587 5.53781151 -45.19140625 0.61328125 C-32.14769767 -7.87326711 -13.57311812 -6.87282888 0 0 Z M-44.9375 5 C-45.48277344 5.46019531 -46.02804688 5.92039063 -46.58984375 6.39453125 C-50.45629509 11.31060095 -50.80591022 18.33921931 -51.7265625 24.34375 C-51.95537613 25.81273743 -51.95537613 25.81273743 -52.18881226 27.31140137 C-52.5091995 29.38197569 -52.82673526 31.452993 -53.14160156 33.52441406 C-53.61941999 36.65098757 -54.11390681 39.77461912 -54.609375 42.8984375 C-57.53889755 58.50716685 -57.53889755 58.50716685 -57 74.1875 C-53.47522294 78.65825612 -49.41880715 80.02346755 -44 81.1875 C-40.17555283 81.58126371 -36.40433374 81.60814555 -32.5625 81.5625 C-31.10360352 81.57990234 -31.10360352 81.57990234 -29.61523438 81.59765625 C-21.58947868 81.56548889 -14.59315034 80.21273019 -7.5625 76.25 C-0.5563723 67.876823 -0.63915762 52.84327493 0.78979492 42.35009766 C1.1887045 39.42867884 1.60048951 36.50927442 2.01367188 33.58984375 C2.27420277 31.71104346 2.53399432 29.83214047 2.79296875 27.953125 C2.97571602 26.66066864 2.97571602 26.66066864 3.16215515 25.34210205 C4.52864007 16.0427948 4.52864007 16.0427948 2.75 7 C-3.47340837 0.63515053 -10.87650527 -1.06397672 -19.54882812 -1.29736328 C-20.41958984 -1.3023584 -21.29035156 -1.30735352 -22.1875 -1.3125 C-23.01830078 -1.31878418 -23.84910156 -1.32506836 -24.70507812 -1.33154297 C-31.86660239 -1.18530249 -39.40965669 0.09387012 -44.9375 5 Z " fill="#F4F9F4" transform="translate(138,212.8125)"/>
<path d="M0 0 C4.31796769 3.47281387 6.16264302 6.04028338 7.6328125 11.453125 C7.81744631 20.89271629 6.03956496 30.46887819 4.5859375 39.78442383 C4.25875268 41.88459006 3.94124265 43.98605188 3.625 46.08789062 C2.99736182 50.21593906 2.32384433 54.33526704 1.6328125 58.453125 C1.51933472 59.14738586 1.40585693 59.84164673 1.28894043 60.5569458 C0.94922231 62.59995467 0.58745919 64.637827 0.21875 66.67578125 C0.01040527 67.86051025 -0.19793945 69.04523926 -0.41259766 70.26586914 C-1.72211051 74.63816845 -3.81369938 77.38146742 -7.55859375 79.96484375 C-21.06973055 86.66476496 -36.04489087 87.20307833 -50.57421875 83.43359375 C-55.33492625 81.76235238 -58.0237053 79.59048304 -60.7421875 75.265625 C-62.56272819 67.07319188 -61.0062816 58.52412266 -59.7578125 50.34765625 C-59.58973083 49.2242131 -59.42164917 48.10076996 -59.24847412 46.94328308 C-58.89254291 44.58374702 -58.53263832 42.22480722 -58.16894531 39.86645508 C-57.61754882 36.267983 -57.08953048 32.66656416 -56.5625 29.06445312 C-56.21235938 26.76280408 -55.86084375 24.4613637 -55.5078125 22.16015625 C-55.35346741 21.09021927 -55.19912231 20.02028229 -55.0401001 18.91792297 C-53.9746437 12.19801016 -52.57581291 6.86927345 -47.796875 1.78125 C-35.35781039 -6.84483501 -12.96728016 -8.47366822 0 0 Z M-47.3671875 6.453125 C-50.31584271 12.37733492 -51.19779273 19.24239501 -52.19140625 25.71875 C-52.34253372 26.67400574 -52.49366119 27.62926147 -52.64936829 28.61346436 C-52.96489153 30.62304828 -53.27645524 32.63325754 -53.58422852 34.64404297 C-54.05157268 37.68287136 -54.53765585 40.71829224 -55.02539062 43.75390625 C-58.7591891 60.74811719 -58.7591891 60.74811719 -55.1796875 76.640625 C-45.03398997 83.17896341 -29.49300374 83.11810294 -17.859375 80.734375 C-12.68063777 78.98461092 -8.60347203 77.00415012 -5.3671875 72.453125 C-2.8852916 66.53037392 -1.74371872 60.56466326 -1.015625 54.21875 C-0.85907944 52.95717072 -0.85907944 52.95717072 -0.69937134 51.67010498 C-0.37159889 49.01542264 -0.05640162 46.35944287 0.2578125 43.703125 C0.58176804 41.03290219 0.90833448 38.36301673 1.23641968 35.69329834 C1.43862552 34.04086733 1.63800847 32.38808766 1.83413696 30.73492432 C2.29144715 26.93156758 2.83445177 23.20325098 3.6328125 19.453125 C4.19951656 14.34469266 4.29460422 10.6443501 1.7578125 6.078125 C-4.20957811 0.04234023 -13.87031865 -1.68882353 -21.9921875 -1.796875 C-31.11871136 -1.71166886 -40.44524364 0.03804523 -47.3671875 6.453125 Z " fill="#F3F9F4" transform="translate(276.3671875,214.546875)"/>
<path d="M0 0 C2.67632274 3.31354244 2.1135158 6.91184353 2 11 C1.7202539 13.24892621 1.38873878 15.49188514 1.01171875 17.7265625 C0.69630127 19.63127319 0.69630127 19.63127319 0.37451172 21.57446289 C0.14565928 22.92466761 -0.08334758 24.27484616 -0.3125 25.625 C-0.77795073 28.40702363 -1.2394139 31.18969431 -1.69921875 33.97265625 C-1.87003967 35.00346565 -1.87003967 35.00346565 -2.04431152 36.05509949 C-3.16380039 42.87394766 -4.11011044 49.71651163 -4.9230957 56.57861328 C-5.63964607 62.08388763 -7.115073 66.3439665 -10.375 70.9375 C-12 72 -12 72 -14.5625 71.9375 C-17 71 -17 71 -18.13967896 69.2041626 C-20.54070147 63.05268688 -18.82202664 55.60116817 -17.7578125 49.265625 C-17.62937958 48.46574158 -17.50094666 47.66585815 -17.36862183 46.84173584 C-16.96067013 44.31003652 -16.54311998 41.7800377 -16.125 39.25 C-15.852206 37.57041933 -15.58006584 35.89073233 -15.30859375 34.2109375 C-14.91139494 31.75353733 -14.51287847 29.29641203 -14.10870361 26.84014893 C-13.1649476 21.09838652 -12.309772 15.34765699 -11.52294922 9.58203125 C-10.74291232 5.73064458 -9.30338207 3.16715034 -7 0 C-4.25509788 -1.37245106 -2.87939419 -0.93580311 0 0 Z " fill="#068383" transform="translate(401,219)"/>
<path d="M0 0 C1.9375 0.0625 1.9375 0.0625 4 1 C6.29624549 3.91953132 7.00672759 5.49720689 6.95654297 9.24780273 C6.76205566 10.48473877 6.56756836 11.7216748 6.3671875 12.99609375 C6.15452855 14.42820872 5.94196854 15.86033839 5.72949219 17.29248047 C5.60989136 18.05405457 5.49029053 18.81562866 5.36706543 19.60028076 C4.85621653 22.93999579 4.42262847 26.28856465 3.98345947 29.63833618 C3.51052197 33.20825285 3.00882058 36.77387514 2.50537109 40.33959961 C2.24964982 42.1701897 1.99974248 44.00160048 1.75537109 45.83374023 C1.39524107 48.52803747 1.01601823 51.21905619 0.6328125 53.91015625 C0.52848907 54.72065933 0.42416565 55.53116241 0.31668091 56.3662262 C-0.47359361 61.72464124 -1.86807867 65.54230719 -5 70 C-8.25 70.9375 -8.25 70.9375 -11 71 C-15.70817825 63.93773262 -12.7767722 52.587981 -11.609375 44.5390625 C-11.46348938 43.50486176 -11.31760376 42.47066101 -11.16729736 41.40512085 C-10.85894079 39.24161571 -10.54613197 37.07874073 -10.22900391 34.91650391 C-9.74847659 31.61453182 -9.29363037 28.30964635 -8.83984375 25.00390625 C-8.53540738 22.89040069 -8.22947048 20.7771106 -7.921875 18.6640625 C-7.78940369 17.68273346 -7.65693237 16.70140442 -7.52044678 15.69033813 C-6.49644513 8.94037826 -4.892335 4.892335 0 0 Z " fill="#058383" transform="translate(253,220)"/>
<path d="M0 0 C1.2375 0.1546875 1.2375 0.1546875 2.5 0.3125 C7.06346264 7.15769395 4.2506071 17.81422556 3.14453125 25.60546875 C3.0010173 26.63634109 2.85750336 27.66721344 2.7096405 28.72932434 C2.40526722 30.89037568 2.09664699 33.05083282 1.78393555 35.21069336 C1.31258409 38.49941326 0.86982639 41.79122029 0.42773438 45.08398438 C0.12674677 47.19556222 -0.17593013 49.30690012 -0.48046875 51.41796875 C-0.60777878 52.39211227 -0.73508881 53.3662558 -0.86625671 54.36991882 C-1.78344971 60.43927999 -3.30834918 65.65503831 -7.5 70.3125 C-10.1875 70.9375 -10.1875 70.9375 -12.5 70.3125 C-15.16829071 67.64420929 -14.80852663 66.3966003 -14.83203125 62.65625 C-14.68986555 52.97414793 -13.1701411 43.48391897 -11.67407227 33.93261719 C-11.18448616 30.79317393 -10.71726618 27.650935 -10.25195312 24.5078125 C-9.94403058 22.49458898 -9.6348316 20.48156019 -9.32421875 18.46875 C-9.11776985 17.07178894 -9.11776985 17.07178894 -8.90715027 15.64660645 C-6.53665461 0.81708183 -6.53665461 0.81708183 0 0 Z " fill="#048282" transform="translate(116.5,218.6875)"/>
<path d="M0 0 C4.0645632 0.74655243 5.49029714 2.40236506 8.0625 5.5625 C11.58467327 16.1290198 7.24333966 31.53499978 5.58837891 42.36499023 C5.18448985 45.01978597 4.79677872 47.67662528 4.41015625 50.33398438 C4.15200261 52.05483193 3.89292126 53.77554063 3.6328125 55.49609375 C3.52019073 56.27440048 3.40756897 57.05270721 3.29153442 57.854599 C2.30521463 64.18241303 0.99897157 70.69365323 -2.625 76.0625 C-6.1887561 78.37412558 -8.66384143 78.5625 -12.9375 78.5625 C-16.22055483 76.28961588 -17.20290497 74.38081498 -17.9375 70.5625 C-18.41692718 63.41572035 -17.5668633 56.429134 -16.546875 49.3671875 C-16.40098938 48.33490021 -16.25510376 47.30261292 -16.10479736 46.23904419 C-15.79575467 44.07207744 -15.48293668 41.90564604 -15.16650391 39.73974609 C-14.68811742 36.44175648 -14.23227196 33.14114049 -13.77734375 29.83984375 C-13.47272641 27.72376034 -13.16678167 25.6078675 -12.859375 23.4921875 C-12.66066803 22.02626663 -12.66066803 22.02626663 -12.45794678 20.5307312 C-11.38979501 13.44159115 -9.37789921 7.81636562 -5.0625 2.0625 C-2.9375 0.5625 -2.9375 0.5625 0 0 Z M-4.00268555 6.63916016 C-6.29442855 10.10178864 -6.85401942 12.74583962 -7.51953125 16.8359375 C-7.6371431 17.53391449 -7.75475494 18.23189148 -7.87593079 18.95101929 C-8.12098589 20.41864383 -8.35904098 21.88745286 -8.59039307 23.3572998 C-8.92525236 25.48468971 -9.27868632 27.60809589 -9.63818359 29.73144531 C-10.21778943 33.18371781 -10.76626968 36.63997476 -11.30004883 40.09960938 C-11.51735531 41.49585658 -11.73939205 42.89137549 -11.96606445 44.28613281 C-13.48314578 53.62569873 -14.91510702 63.0832496 -13.9375 72.5625 C-12.1102677 74.72181527 -12.1102677 74.72181527 -9.625 75.1875 C-6.41670337 74.4413845 -6.13846033 73.88125023 -4.39575195 71.2043457 C-1.43900399 66.2261483 -0.66000532 61.34584132 0.08203125 55.66796875 C0.23032883 54.63996658 0.3786264 53.61196442 0.53141785 52.55281067 C0.83995632 50.38825972 1.13947674 48.22240605 1.43041992 46.05541992 C1.87265189 42.76745799 2.34299025 39.48448964 2.81835938 36.20117188 C3.11624667 34.08617111 3.41252338 31.97094274 3.70703125 29.85546875 C3.84446243 28.88739792 3.98189362 27.91932709 4.12348938 26.92192078 C6.13921094 15.28731822 6.13921094 15.28731822 3.0625 4.5625 C-0.4111982 3.83119512 -1.47801098 4.10045796 -4.00268555 6.63916016 Z " fill="#F4F9F3" transform="translate(115.9375,214.4375)"/>
<path d="M0 0 C3.68742005 0.72431465 5.45626544 1.59706296 7.63330078 4.7097168 C11.40172604 13.30915708 7.45830442 26.34765395 6.10131836 35.3203125 C5.6896733 38.04809853 5.29215386 40.77766851 4.89648438 43.5078125 C0.88734041 70.79754868 0.88734041 70.79754868 -4.5 76.6875 C-7.68530543 78.28015271 -11.04102602 78.21201655 -14.5 77.6875 C-17.23626112 75.12777185 -18.38193543 72.36088401 -18.64778137 68.59292603 C-18.65797191 62.18880275 -18.02995038 56.03807579 -17.07421875 49.7109375 C-16.85183281 48.19580063 -16.85183281 48.19580063 -16.62495422 46.65005493 C-16.31162166 44.53016126 -15.99461029 42.41080833 -15.67407227 40.29199219 C-15.18804289 37.06610327 -14.71932072 33.83801414 -14.25195312 30.609375 C-13.94374855 28.53890739 -13.63453782 26.46858925 -13.32421875 24.3984375 C-13.18658615 23.4430307 -13.04895355 22.4876239 -12.90715027 21.50326538 C-11.84427071 14.6050099 -10.51747748 8.37746998 -6.25 2.6875 C-3.5 0.6875 -3.5 0.6875 0 0 Z M-4.0625 6.125 C-6.03131884 8.63743289 -6.92562393 10.70164312 -7.55810547 13.82104492 C-7.79989532 15.01121719 -7.79989532 15.01121719 -8.04656982 16.22543335 C-8.77451573 20.17808459 -9.41636373 24.13803322 -10.0078125 28.11328125 C-10.13815887 28.98212448 -10.26850525 29.85096771 -10.40280151 30.74613953 C-10.67512477 32.57194641 -10.94561937 34.39802692 -11.21435547 36.22436523 C-11.62257765 38.98362678 -12.04351985 41.7407597 -12.46484375 44.49804688 C-15.80689263 60.12099911 -15.80689263 60.12099911 -12.5 74.6875 C-9.62688428 74.73925552 -9.62688428 74.73925552 -6.5 73.6875 C-2.16703811 67.80445643 -1.34230173 61.7753763 -0.32421875 54.65625 C-0.14993851 53.50636597 0.02434174 52.35648193 0.2039032 51.17175293 C0.56775019 48.74883308 0.92453222 46.32484297 1.2746582 43.89990234 C1.81109713 40.19718321 2.37352507 36.49909532 2.93945312 32.80078125 C3.29061472 30.44033457 3.64027493 28.07966393 3.98828125 25.71875 C4.15588455 24.61752808 4.32348785 23.51630615 4.49617004 22.38171387 C6.05621784 13.21170604 6.05621784 13.21170604 3.125 4.75 C-0.15036224 2.60841699 -1.38083498 3.57414791 -4.0625 6.125 Z " fill="#F6FAF4" transform="translate(254.5,216.3125)"/>
<path d="M0 0 C1.89600369 0.31146472 3.79179587 0.62421717 5.6875 0.9375 C6.74324219 1.11152344 7.79898437 1.28554688 8.88671875 1.46484375 C11.60249604 1.93167121 14.30124235 2.44422616 17 3 C16.1535545 14.97630332 16.1535545 14.97630332 15.4375 19.75 C15.07433311 22.44781121 14.84140765 25.03388708 14.75 27.75 C14.72421875 28.48734375 14.6984375 29.2246875 14.671875 29.984375 C14.87294415 32.45724888 14.87294415 32.45724888 18 35 C10.74 35 3.48 35 -4 35 C-3.32271827 27.0764613 -2.44699793 19.20010824 -1.4375 11.3125 C-1.29892578 10.21744141 -1.16035156 9.12238281 -1.01757812 7.99414062 C-0.68009717 5.32920479 -0.34087936 2.66450289 0 0 Z " fill="#F2FF5A" transform="translate(328,260)"/>
<path d="M0 0 C8.41602368 -0.42473391 15.20996047 0.19607442 22.5625 4.5 C26.93711316 12.10802289 23.33319802 23.84606567 22 32 C19.77092605 32.47959778 17.54173703 32.9586608 15.3125 33.4375 C14.07113281 33.70433594 12.82976562 33.97117188 11.55078125 34.24609375 C8.70387985 34.85055136 5.85544374 35.43764684 3 36 C3.2165625 34.865625 3.433125 33.73125 3.65625 32.5625 C3.93787302 31.0417357 4.21910196 29.52089838 4.5 28 C4.64308594 27.25621094 4.78617187 26.51242188 4.93359375 25.74609375 C6.38253112 17.81143674 6.84686464 11.40877634 3 4 C2.01843625 2.65303661 1.02184666 1.31666517 0 0 Z " fill="#F2FF5A" transform="translate(326,214)"/>
<path d="M0 0 C2.375 0.9375 2.375 0.9375 4.375 3.9375 C4.81289258 7.2732111 4.5690538 10.58566171 4.375 13.9375 C4.31828125 15.0615625 4.2615625 16.185625 4.203125 17.34375 C3.3808532 26.03633765 3.3808532 26.03633765 0.4609375 28.65234375 C-1.55953047 29.65543827 -3.43912969 30.39357413 -5.625 30.9375 C-8.125 29.35546875 -8.125 29.35546875 -10.625 26.9375 C-11.64411544 18.41302396 -9.79249682 8.37199555 -4.75 1.3125 C-2.625 -0.0625 -2.625 -0.0625 0 0 Z " fill="#058282" transform="translate(324.625,219.0625)"/>
<path d="M0 0 C4.53851221 4.53851221 5.84977207 7.24582137 6.1875 13.4375 C5.90544758 28.44268877 5.90544758 28.44268877 1.625 34.1875 C0.75875 34.785625 -0.1075 35.38375 -1 36 C-1.928125 36.680625 -1.928125 36.680625 -2.875 37.375 C-6.2065488 38.35486729 -8.65712743 37.82105642 -12 37 C-14.72265625 35.390625 -14.72265625 35.390625 -17 33 C-17.97185303 24.39505134 -16.51610635 13.12373786 -11.5390625 5.87109375 C-8.13018317 1.75549554 -5.66958511 -0.92295572 0 0 Z M-7.625 6.5625 C-12.59169596 13.15936918 -13.85281842 22.95213883 -13 31 C-10.64151091 33.46056558 -10.64151091 33.46056558 -8 35 C-4.82571047 34.21011865 -2.45079907 33.1957159 0 31 C1.4865578 26.72465977 1.76750113 22.50014479 2 18 C2.06832031 17.03191406 2.13664062 16.06382812 2.20703125 15.06640625 C2.45125205 10.19344296 2.45125205 10.19344296 0.73046875 5.72265625 C-2.52773009 2.47916711 -4.6450835 3.6535339 -7.625 6.5625 Z " fill="#F6FBF3" transform="translate(327,215)"/>
<path d="M0 0 C0.9590625 -0.02578125 1.918125 -0.0515625 2.90625 -0.078125 C5.5 0.25 5.5 0.25 7.2890625 1.52734375 C9.35875852 4.47165325 9.61916569 7.74785281 9.5 11.25 C7.99717203 15.30763553 7.11841259 16.83772494 3.5 19.25 C0.8125 19.375 0.8125 19.375 -1.5 19.25 C-1.5 21.56 -1.5 23.87 -1.5 26.25 C-0.84 26.58 -0.18 26.91 0.5 27.25 C-2.47 27.25 -5.44 27.25 -8.5 27.25 C-7.84 26.92 -7.18 26.59 -6.5 26.25 C-6.5 18.66 -6.5 11.07 -6.5 3.25 C-7.16 3.25 -7.82 3.25 -8.5 3.25 C-8.5 2.59 -8.5 1.93 -8.5 1.25 C-5.45059327 0.23353109 -3.19630097 0.05155324 0 0 Z " fill="#DFEFEF" transform="translate(179.5,308.75)"/>
<path d="M0 0 C2.9375 1.9375 2.9375 1.9375 5 5 C5.63396319 8.12532731 5.64809361 10.87630555 5 14 C3.12379387 16.50160818 1.76108697 17.61945652 -1 19 C-4.93429172 19.52457223 -6.54458957 19.30690703 -9.875 17.0625 C-12.35976044 13.48152172 -12.74450361 11.4346666 -12.48046875 7.16015625 C-11.01330635 0.56388952 -6.10584667 -1.09032976 0 0 Z " fill="#EBF5F5" transform="translate(368,309)"/>
<path d="M0 0 C0.33 0.66 0.66 1.32 1 2 C1.66 1.34 2.32 0.68 3 0 C6.0913386 -0.23779528 8.03104944 0.01034981 11 1 C12.7634375 0.7215625 12.7634375 0.7215625 14.5625 0.4375 C15.696875 0.293125 16.83125 0.14875 18 0 C20 2 20 2 20.1953125 5.4765625 C20.18201493 6.85950968 20.15816232 8.24238654 20.125 9.625 C20.11597656 10.33140625 20.10695312 11.0378125 20.09765625 11.765625 C20.07407603 13.51056098 20.03820461 15.25532295 20 17 C20.66 17.33 21.32 17.66 22 18 C20.02 18 18.04 18 16 18 C15.505 11.565 15.505 11.565 15 5 C13.68 5.33 12.36 5.66 11 6 C10.67 9.63 10.34 13.26 10 17 C10.66 17.33 11.32 17.66 12 18 C9.36 18 6.72 18 4 18 C4.66 17.67 5.32 17.34 6 17 C5.67 13.04 5.34 9.08 5 5 C4.01 5 3.02 5 2 5 C0.81693272 7.36613456 0.86645392 8.86780736 0.875 11.5 C0.87242187 12.2940625 0.86984375 13.088125 0.8671875 13.90625 C0.86722004 16.05918534 0.86722004 16.05918534 2 18 C-0.64 18 -3.28 18 -6 18 C-5.34 17.67 -4.68 17.34 -4 17 C-4 12.38 -4 7.76 -4 3 C-4.66 3 -5.32 3 -6 3 C-6 2.34 -6 1.68 -6 1 C-3 0 -3 0 0 0 Z " fill="#F8FBFB" transform="translate(148,309)"/>
<path d="M0 0 C2.9375 1.375 2.9375 1.375 5 4 C5.65195872 7.44279957 5.63617698 10.55547421 5 14 C3.11484777 16.57637471 1.80665143 17.59667428 -1 19 C-4.93429172 19.52457223 -6.54458957 19.30690703 -9.875 17.0625 C-12.35976044 13.48152172 -12.74450361 11.4346666 -12.48046875 7.16015625 C-11.00249309 0.51527381 -6.12405519 -0.98422316 0 0 Z " fill="#ECF5F5" transform="translate(299,309)"/>
<path d="M0 0 C2.91368224 1.98378365 4.63558769 3.41448681 5.4453125 6.9375 C5.66348199 10.77728304 5.23217682 12.63625632 3.125 15.9375 C0.62131796 18.36754434 -0.36185869 18.91491449 -3.8125 19.375 C-7 19 -7 19 -9.875 17.0625 C-12.35976044 13.48152172 -12.74450361 11.4346666 -12.48046875 7.16015625 C-11.01330635 0.56388952 -6.10584667 -1.09032976 0 0 Z " fill="#EBF5F5" transform="translate(135,309)"/>
<path d="M0 0 C0.625 2.375 0.625 2.375 1 5 C0.34 5.66 -0.32 6.32 -1 7 C-1.61875 6.2575 -1.61875 6.2575 -2.25 5.5 C-4.12202338 3.56613908 -4.12202338 3.56613908 -8 4 C-8 4.99 -8 5.98 -8 7 C-7.04287109 7.39832031 -7.04287109 7.39832031 -6.06640625 7.8046875 C-5.24011719 8.15789062 -4.41382813 8.51109375 -3.5625 8.875 C-2.73878906 9.22304688 -1.91507812 9.57109375 -1.06640625 9.9296875 C1 11 1 11 2 13 C2.4375 16.375 2.4375 16.375 2 20 C-1.18750599 23.10781834 -3.81826012 24.23770411 -8.1875 24.375 C-12 24 -12 24 -15 22 C-14.67 20.02 -14.34 18.04 -14 16 C-13.34 16 -12.68 16 -12 16 C-12 16.99 -12 17.98 -12 19 C-9.36 19 -6.72 19 -4 19 C-4 18.01 -4 17.02 -4 16 C-4.71027344 15.70867187 -5.42054688 15.41734375 -6.15234375 15.1171875 C-13.64448362 11.7756721 -13.64448362 11.7756721 -15.375 8 C-15 5 -15 5 -13.75 2.125 C-9.49824349 -1.16044821 -5.18650038 -0.40240089 0 0 Z " fill="#EDF6F6" transform="translate(282,304)"/>
<path d="M0 0 C2.4375 1.6875 2.4375 1.6875 4 4 C4 5.65 4 7.3 4 9 C0.37 9 -3.26 9 -7 9 C-6.34 10.65 -5.68 12.3 -5 14 C-4.2575 14 -3.515 14 -2.75 14 C-0.5 14 1.75 14 4 14 C2.77995974 16.36382801 1.75033881 17.73851829 -0.8046875 18.62890625 C-4.75237624 19.33651084 -6.42909135 19.35226278 -9.9375 17.1875 C-12.32379134 14.65658494 -12.92129455 13.69260796 -13.3125 10.25 C-12.92220973 6.19098115 -11.50412622 4.16698316 -9 1 C-5.90826248 -0.54586876 -3.40570448 -0.29359521 0 0 Z " fill="#CCE5E5" transform="translate(235,309)"/>
<path d="M0 0 C0.625 1.8125 0.625 1.8125 1 4 C0.01 5.485 0.01 5.485 -1 7 C-1.556875 6.2265625 -1.556875 6.2265625 -2.125 5.4375 C-4.02101482 3.65895477 -4.02101482 3.65895477 -7.125 4.1875 C-8.07375 4.455625 -9.0225 4.72375 -10 5 C-11.72504767 8.45009535 -11.48970897 12.22717173 -11 16 C-9.53711443 18.30596047 -9.53711443 18.30596047 -7 19 C-3.93685156 18.75337759 -3.93685156 18.75337759 -1 18 C-0.01 18 0.98 18 2 18 C0.9958588 20.7385669 0.33822766 21.81209575 -2.25 23.25 C-5.42385351 24.11559641 -7.72477694 24.40940288 -11 24 C-14.91260733 21.59908187 -16.8603576 19.45496573 -18 15 C-18.46526938 10.73503072 -18.27244341 8.53479633 -16.3125 4.6875 C-11.65756078 -0.72229423 -6.68346175 -0.26209654 0 0 Z " fill="#EFF7F7" transform="translate(118,304)"/>
<path d="M0 0 C0.33 4.62 0.66 9.24 1 14 C1.99 14.33 2.98 14.66 4 15 C4.33 11.04 4.66 7.08 5 3 C4.34 3 3.68 3 3 3 C3 2.34 3 1.68 3 1 C6.465 0.505 6.465 0.505 10 0 C10.33 5.94 10.66 11.88 11 18 C8.69 18 6.38 18 4 18 C1.9935269 18.29185063 -0.00994193 18.61169599 -2 19 C-5.13107836 15.61416198 -5.33550778 13.28890538 -5.1875 8.75 C-5.14689453 7.13351562 -5.14689453 7.13351562 -5.10546875 5.484375 C-5.07066406 4.66453125 -5.03585937 3.8446875 -5 3 C-5.66 3 -6.32 3 -7 3 C-7 2.34 -7 1.68 -7 1 C-5 0 -5 0 0 0 Z " fill="#EDF6F6" transform="translate(321,309)"/>
<path d="M0 0 C1.65 0 3.3 0 5 0 C5.33 4.95 5.66 9.9 6 15 C6.99 14.67 7.98 14.34 9 14 C9.33 10.04 9.66 6.08 10 2 C9.34 1.67 8.68 1.34 8 1 C11.465 0.505 11.465 0.505 15 0 C15 5.61 15 11.22 15 17 C15.66 17.33 16.32 17.66 17 18 C14.33333333 18 11.66666667 18 9 18 C8.01 18.20625 7.02 18.4125 6 18.625 C5.01 18.74875 4.02 18.8725 3 19 C1 17 1 17 0.8046875 13.7421875 C0.82789063 12.46601563 0.85109375 11.18984375 0.875 9.875 C0.89304688 8.59367187 0.91109375 7.31234375 0.9296875 5.9921875 C0.95289063 5.00476563 0.97609375 4.01734375 1 3 C0.01 2.67 -0.98 2.34 -2 2 C-1.34 1.34 -0.68 0.68 0 0 Z " fill="#F3F8F8" transform="translate(192,309)"/>
<path d="M0 0 C0.33 -0.33 0.66 -0.66 1 -1 C3.4375 -1.1875 3.4375 -1.1875 6 -1 C8 1 8 1 8.1953125 4.4765625 C8.18201493 5.85950968 8.15816232 7.24238654 8.125 8.625 C8.11597656 9.33140625 8.10695313 10.0378125 8.09765625 10.765625 C8.07407603 12.51056098 8.03820461 14.25532295 8 16 C8.66 16.33 9.32 16.66 10 17 C8.02 17 6.04 17 4 17 C3.67 12.71 3.34 8.42 3 4 C2.01 4 1.02 4 0 4 C0 8.29 0 12.58 0 17 C-2.64 17 -5.28 17 -8 17 C-7.34 16.67 -6.68 16.34 -6 16 C-6 11.38 -6 6.76 -6 2 C-6.66 2 -7.32 2 -8 2 C-8 1.34 -8 0.68 -8 0 C-4.68589597 -1.10470134 -3.32050692 -0.69905409 0 0 Z " fill="#EEF6F6" transform="translate(383,310)"/>
<path d="M0 0 C0.66 0.66 1.32 1.32 2 2 C1.67 2.99 1.34 3.98 1 5 C-1.64 4.34 -4.28 3.68 -7 3 C-4.45543849 5.96865509 -1.51005335 7.3619751 2 9 C2.48309179 15.40096618 2.48309179 15.40096618 0.4375 17.9375 C-2.87344069 19.38073056 -5.42556678 19.32494847 -9 19 C-9.99 18.34 -10.98 17.68 -12 17 C-11.34 15.68 -10.68 14.36 -10 13 C-9.67 13.66 -9.34 14.32 -9 15 C-7.02 15 -5.04 15 -3 15 C-3 14.34 -3 13.68 -3 13 C-3.94875 12.54625 -4.8975 12.0925 -5.875 11.625 C-9 10 -9 10 -11 8 C-11.375 5.5625 -11.375 5.5625 -11 3 C-7.86762591 -0.63355395 -4.56487146 -0.42267328 0 0 Z " fill="#F2F8F8" transform="translate(408,309)"/>
<path d="M0 0 C0 8.25 0 16.5 0 25 C0.66 25.33 1.32 25.66 2 26 C-0.97 26 -3.94 26 -7 26 C-6.34 25.67 -5.68 25.34 -5 25 C-5 17.74 -5 10.48 -5 3 C-5.66 3 -6.32 3 -7 3 C-7 2.34 -7 1.68 -7 1 C-4.50935112 0.31292445 -2.62113708 0 0 0 Z " fill="#EBF5F5" transform="translate(312,301)"/>
<path d="M0 0 C1.32 0 2.64 0 4 0 C4 1.32 4 2.64 4 4 C4.99 4 5.98 4 7 4 C7 4.99 7 5.98 7 7 C6.01 7 5.02 7 4 7 C4 10.96 4 14.92 4 19 C5.32 19 6.64 19 8 19 C7.67 19.99 7.34 20.98 7 22 C5.02 22.33 3.04 22.66 1 23 C-1.42130331 19.36804504 -1.21022785 17.61650652 -1.125 13.3125 C-1.09792969 11.54326172 -1.09792969 11.54326172 -1.0703125 9.73828125 C-1.04710937 8.83464844 -1.02390625 7.93101562 -1 7 C-1.66 7 -2.32 7 -3 7 C-3 6.34 -3 5.68 -3 5 C-2.34 5 -1.68 5 -1 5 C-0.67 3.35 -0.34 1.7 0 0 Z " fill="#EAF4F4" transform="translate(336,305)"/>
<path d="M0 0 C-0.33 0.639375 -0.66 1.27875 -1 1.9375 C-2.31141145 5.95369755 -2.53422519 9.80476099 -2 14 C-1.01 15.485 -1.01 15.485 0 17 C-0.99 17 -1.98 17 -3 17 C-3 19.64 -3 22.28 -3 25 C-2.01 25.33 -1.02 25.66 0 26 C-2.97 26 -5.94 26 -9 26 C-8.34 25.67 -7.68 25.34 -7 25 C-7 17.41 -7 9.82 -7 2 C-7.66 2 -8.32 2 -9 2 C-9 1.34 -9 0.68 -9 0 C-5.52176885 -1.15941038 -3.54104422 -0.70820884 0 0 Z " fill="#F7FBFB" transform="translate(180,310)"/>
<path d="M0 0 C1.32 0 2.64 0 4 0 C4 1.32 4 2.64 4 4 C5.32 4 6.64 4 8 4 C7.67 4.99 7.34 5.98 7 7 C6.01 7 5.02 7 4 7 C4.33 10.63 4.66 14.26 5 18 C5.99 18 6.98 18 8 18 C7.67 19.32 7.34 20.64 7 22 C4.625 22.625 4.625 22.625 2 23 C0 21 0 21 -0.1953125 17.7421875 C-0.17210937 16.46601563 -0.14890625 15.18984375 -0.125 13.875 C-0.10695312 12.59367187 -0.08890625 11.31234375 -0.0703125 9.9921875 C-0.04710937 9.00476563 -0.02390625 8.01734375 0 7 C-0.66 7 -1.32 7 -2 7 C-1.34 4.69 -0.68 2.38 0 0 Z " fill="#F3F9F9" transform="translate(212,305)"/>
<path d="M0 0 C0.886875 0.495 1.77375 0.99 2.6875 1.5 C7.5625982 3.70759164 11.03215113 2.71177512 15.9375 0.9375 C16.9584375 0.4734375 16.9584375 0.4734375 18 0 C18 0.66 18 1.32 18 2 C16.02 2.99 14.04 3.98 12 5 C12 5.66 12 6.32 12 7 C13.98 7.99 15.96 8.98 18 10 C17.01 11.485 17.01 11.485 16 13 C15.41992188 12.60425781 14.83984375 12.20851563 14.2421875 11.80078125 C11.85540045 10.30017751 9.63832006 9.00178438 7 8 C3.69871355 9.1915405 3.69871355 9.1915405 1 11 C-1.375 10.1875 -1.375 10.1875 -3 9 C-2.4140625 2.84765625 -2.4140625 2.84765625 -2 1 C-1.34 0.67 -0.68 0.34 0 0 Z " fill="#F3FF6A" transform="translate(311,249)"/>
<path d="M0 0 C1.65 0 3.3 0 5 0 C5.33 0.66 5.66 1.32 6 2 C6.66 1.34 7.32 0.68 8 0 C9.32 0 10.64 0 12 0 C11.67 1.65 11.34 3.3 11 5 C9.68 5 8.36 5 7 5 C5.82326802 7.35346396 5.83376134 8.8806033 5.8125 11.5 C5.79832031 12.2940625 5.78414062 13.088125 5.76953125 13.90625 C5.80333697 16.22033317 5.80333697 16.22033317 8 18 C5.03 18 2.06 18 -1 18 C-0.34 17.67 0.32 17.34 1 17 C1 12.38 1 7.76 1 3 C0.34 3 -0.32 3 -1 3 C-0.67 2.01 -0.34 1.02 0 0 Z " fill="#FAFCFC" transform="translate(242,309)"/>
<path d="M0 0 C0 5.61 0 11.22 0 17 C0.66 17.33 1.32 17.66 2 18 C-0.64 18 -3.28 18 -6 18 C-5.98839844 16.94039063 -5.97679687 15.88078125 -5.96484375 14.7890625 C-5.95546524 13.40104342 -5.94636511 12.01302245 -5.9375 10.625 C-5.92912109 9.92632812 -5.92074219 9.22765625 -5.91210938 8.5078125 C-5.8164558 4.62704624 -5.8164558 4.62704624 -7 1 C-4 0 -4 0 0 0 Z " fill="#EAF4F4" transform="translate(353,309)"/>
<path d="M0 0 C-0.66 0.474375 -1.32 0.94875 -2 1.4375 C-4.56586655 4.72501651 -4.50735319 6.80396449 -4.33984375 10.87109375 C-3.90958927 13.56636609 -2.96349934 15.11831314 -1 17 C-6.37662338 17.47792208 -6.37662338 17.47792208 -8.875 15.5625 C-10.56886826 11.70424452 -10.54010195 8.14585303 -10 4 C-7.95247791 -0.93814151 -4.92307809 -0.37155306 0 0 Z " fill="#F1F8F8" transform="translate(366,310)"/>
<path d="M0 0 C2.45193779 3.67790669 2.71511798 6.72592275 2 11 C0 14 0 14 -2 16 C-3.65 15.67 -5.3 15.34 -7 15 C-6.505 14.505 -6.01 14.01 -5.5 13.5 C-3.24610698 9.74351164 -3.51619931 7.35420619 -4 3 C-5.84188612 0.94729537 -5.84188612 0.94729537 -8 0 C-4.67212881 -1.1092904 -3.3006216 -1.01557588 0 0 Z " fill="#F1F8F8" transform="translate(138,311)"/>
<path d="M0 0 C6.48071688 -0.36683303 6.48071688 -0.36683303 8.703125 1.203125 C11.2089185 4.67500757 10.6006889 8.92198981 10 13 C8.3125 15.625 8.3125 15.625 6 17 C3.25 17.25 3.25 17.25 1 17 C1.48597656 16.44441406 1.97195313 15.88882812 2.47265625 15.31640625 C4.25032803 12.6203465 4.43267581 11.13593614 4.4375 7.9375 C4.45683594 7.08027344 4.47617187 6.22304688 4.49609375 5.33984375 C4.20355863 2.82241959 4.20355863 2.82241959 1.97265625 1.19140625 C1.32167969 0.79824219 0.67070312 0.40507812 0 0 Z " fill="#F2F8F8" transform="translate(294,310)"/>
<path d="M0 0 C2.625 0.375 2.625 0.375 5 1 C5.02698189 2.62490954 5.04638757 4.24994633 5.0625 5.875 C5.07410156 6.77992188 5.08570313 7.68484375 5.09765625 8.6171875 C5 11 5 11 4 13 C1.5625 12.625 1.5625 12.625 -1 12 C-2.11445498 9.77109005 -2.16480286 8.46944894 -2.1875 6 C-2.20167969 5.29875 -2.21585937 4.5975 -2.23046875 3.875 C-2 2 -2 2 0 0 Z " fill="#078282" transform="translate(294,312)"/>
<path d="M0 0 C4.875 0.875 4.875 0.875 6 2 C6.16796875 3.99609375 6.16796875 3.99609375 6.1875 6.4375 C6.20167969 7.24058594 6.21585937 8.04367187 6.23046875 8.87109375 C6 11 6 11 4 13 C0.46428571 12.46428571 0.46428571 12.46428571 -1 11 C-1.09823996 9.52351124 -1.12973519 8.04224583 -1.125 6.5625 C-1.12757813 5.75941406 -1.13015625 4.95632813 -1.1328125 4.12890625 C-1 2 -1 2 0 0 Z " fill="#058181" transform="translate(362,312)"/>
<path d="M0 0 C4.875 0.875 4.875 0.875 6 2 C6.36090226 9.45864662 6.36090226 9.45864662 4 13 C0.125 12.125 0.125 12.125 -1 11 C-1.09823996 9.52351124 -1.12973519 8.04224583 -1.125 6.5625 C-1.12757812 5.75941406 -1.13015625 4.95632813 -1.1328125 4.12890625 C-1 2 -1 2 0 0 Z " fill="#048181" transform="translate(129,312)"/>
<path d="M0 0 C2.5 0.125 2.5 0.125 3.5 1.125 C3.57313567 3.65549402 3.59247527 6.15804837 3.5625 8.6875 C3.55798828 9.39841797 3.55347656 10.10933594 3.54882812 10.84179688 C3.53700864 12.60290013 3.51907263 14.36396036 3.5 16.125 C4.16 16.455 4.82 16.785 5.5 17.125 C3.52 17.125 1.54 17.125 -0.5 17.125 C-0.57347656 15.51818359 -0.57347656 15.51818359 -0.6484375 13.87890625 C-0.72345294 12.48174361 -0.7990013 11.0846095 -0.875 9.6875 C-0.9059375 8.98044922 -0.936875 8.27339844 -0.96875 7.54492188 C-1.07280629 5.73260812 -1.27919892 3.92682012 -1.5 2.125 C-2.16 1.795 -2.82 1.465 -3.5 1.125 C-2.5 0.125 -2.5 0.125 0 0 Z " fill="#FDFEFE" transform="translate(387.5,309.875)"/>
<path d="M0 0 C1.32 0.33 2.64 0.66 4 1 C4 4.96 4 8.92 4 13 C2.35 13 0.7 13 -1 13 C-2.57960269 11.42039731 -2.16986544 9.80463184 -2.1875 7.625 C-2.20167969 6.83351563 -2.21585938 6.04203125 -2.23046875 5.2265625 C-2 3 -2 3 0 0 Z " fill="#188B8B" transform="translate(150,313)"/>
<path d="M0 0 C2.125 0.375 2.125 0.375 4 1 C4.0270043 2.45823212 4.04639787 3.91660675 4.0625 5.375 C4.07410156 6.18710937 4.08570313 6.99921875 4.09765625 7.8359375 C4 10 4 10 3 12 C1.35 11.67 -0.3 11.34 -2 11 C-2.05399736 9.54207116 -2.09279177 8.08357288 -2.125 6.625 C-2.15980469 5.40683594 -2.15980469 5.40683594 -2.1953125 4.1640625 C-2 2 -2 2 0 0 Z " fill="#148888" transform="translate(179,313)"/>
<path d="M0 0 C0 0.66 0 1.32 0 2 C-1.98 2.99 -3.96 3.98 -6 5 C-5.67 5.99 -5.34 6.98 -5 8 C-2.49552484 9.21869929 -2.49552484 9.21869929 0 10 C-0.99 11.485 -0.99 11.485 -2 13 C-2.43570313 12.61585938 -2.87140625 12.23171875 -3.3203125 11.8359375 C-5.16413058 10.34332287 -6.88389975 9.0772874 -9 8 C-12.12033859 8.51224485 -12.12033859 8.51224485 -15 10 C-16.99369031 10.36920191 -18.99279077 10.71325582 -21 11 C-18.01353231 9.00902154 -15.40312738 8.05875074 -12 7 C-12 6.34 -12 5.68 -12 5 C-14.475 4.01 -14.475 4.01 -17 3 C-16.34 2.34 -15.68 1.68 -15 1 C-14.278125 1.53625 -13.55625 2.0725 -12.8125 2.625 C-10.09844598 4.33083079 -10.09844598 4.33083079 -7.375 3.3125 C-1.38095238 0 -1.38095238 0 0 0 Z " fill="#F3FF6F" transform="translate(190,249)"/>
<path d="M0 0 C3.375 -0.125 3.375 -0.125 7 0 C9 2 9 2 9.125 4.625 C9.08375 5.40875 9.0425 6.1925 9 7 C6.03 7 3.06 7 0 7 C3 5 3 5 5 5 C4.67 3.68 4.34 2.36 4 1 C2.68 0.67 1.36 0.34 0 0 Z " fill="#FBFDFD" transform="translate(229,310)"/>
<path d="M0 0 C3.465 1.98 3.465 1.98 7 4 C7 4.66 7 5.32 7 6 C4.35261084 7.4606285 3.10551666 8 0 8 C0 5.36 0 2.72 0 0 Z " fill="#FEFFF2" transform="translate(309,250)"/>
<path d="M0 0 C0.33 0.66 0.66 1.32 1 2 C4.02934491 2.65772428 4.02934491 2.65772428 7 3 C7.33 3.99 7.66 4.98 8 6 C1.375 6.25 1.375 6.25 -2 4 C-1.34 2.68 -0.68 1.36 0 0 Z " fill="#E3F1F1" transform="translate(398,322)"/>
<path d="M0 0 C1.65 0 3.3 0 5 0 C5.33 0.66 5.66 1.32 6 2 C6.66 1.34 7.32 0.68 8 0 C9.32 0 10.64 0 12 0 C11.67 1.65 11.34 3.3 11 5 C8.69 4.67 6.38 4.34 4 4 C4 3.01 4 2.02 4 1 C2.68 0.67 1.36 0.34 0 0 Z " fill="#E4F1F1" transform="translate(242,309)"/>
<path d="M0 0 C0.94875 0.350625 1.8975 0.70125 2.875 1.0625 C2.545 2.0525 2.215 3.0425 1.875 4.0625 C-1.095 3.5675 -1.095 3.5675 -4.125 3.0625 C-4.455 2.0725 -4.785 1.0825 -5.125 0.0625 C-3.125 -0.9375 -3.125 -0.9375 0 0 Z " fill="#108686" transform="translate(403.125,320.9375)"/>
<path d="M0 0 C3.375 -0.125 3.375 -0.125 7 0 C7.66 0.66 8.32 1.32 9 2 C8.67 2.99 8.34 3.98 8 5 C4.5625 4.1875 4.5625 4.1875 1 3 C0.67 2.01 0.34 1.02 0 0 Z " fill="#E5F2F2" transform="translate(401,309)"/>
<path d="M0 0 C1.98 0.495 1.98 0.495 4 1 C3.67 2.65 3.34 4.3 3 6 C2.01 6 1.02 6 0 6 C-1.125 2.25 -1.125 2.25 0 0 Z " fill="#EBF5F5" transform="translate(349,301)"/>
<path d="M0 0 C4.55384615 -0.36923077 4.55384615 -0.36923077 6.8125 1.5 C7.204375 1.995 7.59625 2.49 8 3 C7.34 3.66 6.68 4.32 6 5 C4.02 4.01 2.04 3.02 0 2 C0 1.34 0 0.68 0 0 Z " fill="#148888" transform="translate(401,312)"/>
</svg>
